<?xml version="1.0" encoding="UTF-8" standalone="no"?>
<!-- Copyright 2017 mathsisfun.com -->

<svg
   width="364.1"
   height="312.1"
   version="1.1"
   style="font-size:13.3px;fill:black"
   id="svg169"
   sodipodi:docname="pascals-triangle-types.svg"
   inkscape:version="1.1 (c68e22c387, 2021-05-23)"
   xmlns:inkscape="http://www.inkscape.org/namespaces/inkscape"
   xmlns:sodipodi="http://sodipodi.sourceforge.net/DTD/sodipodi-0.dtd"
   xmlns="http://www.w3.org/2000/svg"
   xmlns:svg="http://www.w3.org/2000/svg">
  <sodipodi:namedview
     id="namedview171"
     pagecolor="#ffffff"
     bordercolor="#666666"
     borderopacity="1.0"
     inkscape:pageshadow="2"
     inkscape:pageopacity="0.0"
     inkscape:pagecheckerboard="0"
     showgrid="false"
     inkscape:current-layer="svg169" />
  <defs
     id="defs11">
    <marker
       id="aa3"
       style="overflow:visible"
       orient="auto">
      <path
         transform="scale(0.8) rotate(180) translate(12.5,0)"
         style="stroke:black;stroke-width:1pt"
         d="M 0,0 L 5,-5 L -12.5,0 L 5,5 L 0,0 z "
         id="path2" />
    </marker>
    <marker
       id="aa1"
       style="overflow:visible"
       orient="auto">
      <path
         transform="scale(0.8) rotate(180) translate(12.5,0)"
         style="stroke:black;stroke-width:1pt"
         d="M 0,0 L 5,-5 L -12.5,0 L 5,5 L 0,0 z "
         id="path5" />
    </marker>
    <marker
       id="aa2"
       style="overflow:visible"
       orient="auto">
      <path
         transform="scale(0.8) rotate(180) translate(12.5,0)"
         style="stroke:black;stroke-width:1pt"
         d="M 0,0 L 5,-5 L -12.5,0 L 5,5 L 0,0 z "
         id="path8" />
    </marker>
    <marker
       style="overflow:visible"
       orient="auto"
       id="aa19679"
       inkscape:stockid="aa19679">
      <path
         transform="scale(0.8) rotate(180) translate(12.5,0)"
         style="stroke:#204a87;stroke-width:1pt;stroke-opacity:1;fill-opacity:1;fill:#204a87"
         d="M 0,0 L 5,-5 L -12.5,0 L 5,5 L 0,0 z "
         id="path1118" />
    </marker>
    <marker
       style="overflow:visible"
       orient="auto"
       id="aa23018"
       inkscape:stockid="aa23018">
      <path
         transform="scale(0.8) rotate(180) translate(12.5,0)"
         style="stroke:#204a87;stroke-width:1pt;stroke-opacity:1;fill-opacity:1;fill:#204a87"
         d="M 0,0 L 5,-5 L -12.5,0 L 5,5 L 0,0 z "
         id="path1121" />
    </marker>
    <marker
       style="overflow:visible"
       orient="auto"
       id="aa3971"
       inkscape:stockid="aa3971">
      <path
         transform="scale(0.8) rotate(180) translate(12.5,0)"
         style="stroke:#204a87;stroke-width:1pt;stroke-opacity:1;fill-opacity:1;fill:#204a87"
         d="M 0,0 L 5,-5 L -12.5,0 L 5,5 L 0,0 z "
         id="path1124" />
    </marker>
  </defs>
  <rect
     x="33.2"
     y="213.1"
     width="32.9"
     height="32.9"
     style="fill:#bfe9ff;stroke:#00009e;stroke-width:0.59"
     id="rect13" />
  <rect
     x="66.1"
     y="213.1"
     width="32.9"
     height="32.9"
     style="fill:#f5ffbf;stroke:#00009e;stroke-width:0.59"
     id="rect15" />
  <rect
     x="99.1"
     y="213.1"
     width="32.9"
     height="32.9"
     style="fill:#19aeff;stroke:#00009e;stroke-width:0.59"
     id="rect17" />
  <rect
     x="132"
     y="213.1"
     width="32.9"
     height="32.9"
     style="fill:white;stroke:#00009e;stroke-width:0.59"
     id="rect19" />
  <rect
     x="164.9"
     y="213.1"
     width="32.9"
     height="32.9"
     style="fill:white;stroke:#00009e;stroke-width:0.59"
     id="rect21" />
  <rect
     x="197.8"
     y="213.1"
     width="32.9"
     height="32.9"
     style="fill:white;stroke:#00009e;stroke-width:0.59"
     id="rect23" />
  <rect
     x="49.7"
     y="180.1"
     width="32.9"
     height="32.9"
     style="fill:#bfe9ff;stroke:#00009e;stroke-width:0.59"
     id="rect25" />
  <rect
     x="82.6"
     y="180.1"
     width="32.9"
     height="32.9"
     style="fill:#f5ffbf;stroke:#00009e;stroke-width:0.59"
     id="rect27" />
  <rect
     x="115.5"
     y="180.1"
     width="32.9"
     height="32.9"
     style="fill:#19aeff;stroke:#00009e;stroke-width:0.59"
     id="rect29" />
  <rect
     x="148.4"
     y="180.1"
     width="32.9"
     height="32.9"
     style="fill:white;stroke:#00009e;stroke-width:0.59"
     id="rect31" />
  <rect
     x="181.4"
     y="180.1"
     width="32.9"
     height="32.9"
     style="fill:white;stroke:#00009e;stroke-width:0.59"
     id="rect33" />
  <rect
     x="66.1"
     y="147.2"
     width="32.9"
     height="32.9"
     style="fill:#bfe9ff;stroke:#00009e;stroke-width:0.59"
     id="rect35" />
  <rect
     x="99.1"
     y="147.2"
     width="32.9"
     height="32.9"
     style="fill:#f5ffbf;stroke:#00009e;stroke-width:0.59"
     id="rect37" />
  <rect
     x="132"
     y="147.2"
     width="32.9"
     height="32.9"
     style="fill:#19aeff;stroke:#00009e;stroke-width:0.59"
     id="rect39" />
  <rect
     x="164.9"
     y="147.2"
     width="32.9"
     height="32.9"
     style="fill:white;stroke:#00009e;stroke-width:0.59"
     id="rect41" />
  <rect
     x="82.6"
     y="114.3"
     width="32.9"
     height="32.9"
     style="fill:#bfe9ff;stroke:#00009e;stroke-width:0.59"
     id="rect43" />
  <rect
     x="115.5"
     y="114.3"
     width="32.9"
     height="32.9"
     style="fill:#f5ffbf;stroke:#00009e;stroke-width:0.59"
     id="rect45" />
  <rect
     x="148.4"
     y="114.3"
     width="32.9"
     height="32.9"
     style="fill:#19aeff;stroke:#00009e;stroke-width:0.59"
     id="rect47" />
  <rect
     x="99.1"
     y="81.4"
     width="32.9"
     height="32.9"
     style="fill:#bfe9ff;stroke:#00009e;stroke-width:0.59"
     id="rect49" />
  <rect
     x="132"
     y="81.4"
     width="32.9"
     height="32.9"
     style="fill:#f5ffbf;stroke:#00009e;stroke-width:0.59"
     id="rect51" />
  <rect
     x="115.5"
     y="48.5"
     width="32.9"
     height="32.9"
     style="fill:#bfe9ff;stroke:#00009e;stroke-width:0.59"
     id="rect53" />
  <rect
     x="16.8"
     y="246"
     width="32.9"
     height="32.9"
     style="fill:#bfe9ff;stroke:#00009e;stroke-width:0.59"
     id="rect55" />
  <rect
     x="49.7"
     y="246"
     width="32.9"
     height="32.9"
     style="fill:#f5ffbf;stroke:#00009e;stroke-width:0.59"
     id="rect57" />
  <rect
     x="82.6"
     y="246"
     width="32.9"
     height="32.9"
     style="fill:#19aeff;stroke:#00009e;stroke-width:0.59"
     id="rect59" />
  <rect
     x="115.5"
     y="246"
     width="32.9"
     height="32.9"
     style="fill:white;stroke:#00009e;stroke-width:0.59"
     id="rect61" />
  <rect
     x="148.4"
     y="246"
     width="32.9"
     height="32.9"
     style="fill:white;stroke:#00009e;stroke-width:0.59"
     id="rect63" />
  <rect
     x="181.4"
     y="246"
     width="32.9"
     height="32.9"
     style="fill:white;stroke:#00009e;stroke-width:0.59"
     id="rect65" />
  <rect
     x="214.3"
     y="246"
     width="32.9"
     height="32.9"
     style="fill:white;stroke:#00009e;stroke-width:0.59"
     id="rect67" />
  <rect
     x="0.3"
     y="278.9"
     width="32.9"
     height="32.9"
     style="fill:#bfe9ff;stroke:#00009e;stroke-width:0.59"
     id="rect69" />
  <rect
     x="33.2"
     y="278.9"
     width="32.9"
     height="32.9"
     style="fill:#f5ffbf;stroke:#00009e;stroke-width:0.59"
     id="rect71" />
  <rect
     x="66.1"
     y="278.9"
     width="32.9"
     height="32.9"
     style="fill:#19aeff;stroke:#00009e;stroke-width:0.59"
     id="rect73" />
  <rect
     x="99.1"
     y="278.9"
     width="32.9"
     height="32.9"
     style="fill:white;stroke:#00009e;stroke-width:0.59"
     id="rect75" />
  <rect
     x="132"
     y="278.9"
     width="32.9"
     height="32.9"
     style="fill:white;stroke:#00009e;stroke-width:0.59"
     id="rect77" />
  <rect
     x="164.9"
     y="278.9"
     width="32.9"
     height="32.9"
     style="fill:white;stroke:#00009e;stroke-width:0.59"
     id="rect79" />
  <rect
     x="197.8"
     y="278.9"
     width="32.9"
     height="32.9"
     style="fill:white;stroke:#00009e;stroke-width:0.59"
     id="rect81" />
  <rect
     x="230.7"
     y="278.9"
     width="32.9"
     height="32.9"
     style="fill:white;stroke:#00009e;stroke-width:0.59"
     id="rect83" />
  <text
     x="126.6"
     y="71.4"
     style="font-family:Arial"
     id="text85">1</text>
  <text
     x="109.9"
     y="104.3"
     style="font-family:Arial"
     id="text87">1</text>
  <text
     x="94.9"
     y="136.6"
     style="font-family:Arial"
     id="text89">1</text>
  <text
     x="77.4"
     y="170.2"
     style="font-family:Arial"
     id="text91">1</text>
  <text
     x="45.1"
     y="235.6"
     style="font-family:Arial"
     id="text93">1</text>
  <text
     x="61.9"
     y="202.6"
     style="font-family:Arial"
     id="text95">1</text>
  <text
     x="145.1"
     y="104.3"
     style="font-family:Arial"
     id="text97">1</text>
  <text
     x="161.2"
     y="136.6"
     style="font-family:Arial"
     id="text99">1</text>
  <text
     x="177.2"
     y="170.2"
     style="font-family:Arial"
     id="text101">1</text>
  <text
     x="193.1"
     y="202.6"
     style="font-family:Arial"
     id="text103">1</text>
  <text
     x="209.5"
     y="235.6"
     style="font-family:Arial"
     id="text105">1</text>
  <text
     x="127.2"
     y="136.6"
     style="font-family:Arial"
     id="text107">2</text>
  <text
     x="110.2"
     y="170.1"
     style="font-family:Arial"
     id="text109">3</text>
  <text
     x="94.4"
     y="202.5"
     style="font-family:Arial"
     id="text111">4</text>
  <text
     x="77.5"
     y="235.3"
     style="font-family:Arial"
     id="text113">5</text>
  <text
     x="106.2"
     y="235.4"
     style="font-family:Arial"
     id="text115">10</text>
  <text
     x="139.1"
     y="235.4"
     style="font-family:Arial"
     id="text117">10</text>
  <text
     x="176.1"
     y="235.3"
     style="font-family:Arial"
     id="text119">5</text>
  <text
     x="160"
     y="202.5"
     style="font-family:Arial"
     id="text121">4</text>
  <text
     x="127"
     y="202.4"
     style="font-family:Arial"
     id="text123">6</text>
  <text
     x="143.4"
     y="170.1"
     style="font-family:Arial"
     id="text125">3</text>
  <text
     x="226.2"
     y="269.1"
     style="font-family:Arial"
     id="text127">1</text>
  <text
     x="29"
     y="269.1"
     style="font-family:Arial"
     id="text129">1</text>
  <text
     x="192.9"
     y="268.9"
     style="font-family:Arial"
     id="text131">6</text>
  <text
     x="61.4"
     y="268.9"
     style="font-family:Arial"
     id="text133">6</text>
  <text
     x="90.1"
     y="268.9"
     style="font-family:Arial"
     id="text135">15</text>
  <text
     x="123.5"
     y="268.9"
     style="font-family:Arial"
     id="text137">20</text>
  <text
     x="155.8"
     y="268.9"
     style="font-family:Arial"
     id="text139">15</text>
  <text
     x="12.5"
     y="301.7"
     style="font-family:Arial"
     id="text141">1</text>
  <text
     x="173.3"
     y="301.7"
     style="font-family:Arial"
     id="text143">21</text>
  <text
     x="44.8"
     y="301.7"
     style="font-family:Arial"
     id="text145">7</text>
  <text
     x="74.9"
     y="301.7"
     style="font-family:Arial"
     id="text147">21</text>
  <text
     x="106.7"
     y="301.7"
     style="font-family:Arial"
     id="text149">35</text>
  <text
     x="139.5"
     y="301.7"
     style="font-family:Arial"
     id="text151">35</text>
  <text
     x="242.1"
     y="301.7"
     style="font-family:Arial"
     id="text153">1</text>
  <text
     x="208.8"
     y="301.7"
     style="font-family:Arial"
     id="text155">7</text>
  <text
     x="158.7"
     y="13.2"
     style="font-family:'Comic Sans MS';font-size:17.3px;fill:#0aabff"
     id="text157">Ones</text>
  <text
     x="182.6"
     y="44.6"
     style="font-family:'Comic Sans MS';font-size:17.3px;fill:#a9c800"
     id="text159">Counting Numbers</text>
  <text
     x="198.5"
     y="76.5"
     style="font-family:'Comic Sans MS';font-size:17.3px;fill:#007cbf"
     id="text161">Triangular Numbers</text>
  <path
     style="marker-end:url(#aa19679);fill:none;stroke:#204a87;stroke-width:0.89"
     d="m 175.5,17.7 h -20.8 l -11.1,25.2"
     id="path163" />
  <path
     style="marker-end:url(#aa23018);fill:none;stroke:#204a87;stroke-width:0.89"
     d="m 201.2,49 h -20.8 l -11.1,25.2"
     id="path165" />
  <path
     style="marker-end:url(#aa3971);fill:none;stroke:#204a87;stroke-width:0.89"
     d="m 217.5,80 h -20.8 l -11.1,25.2"
     id="path167" />
</svg>
